<svg xmlns="http://www.w3.org/2000/svg" width="11.623" height="12.617" viewBox="0 0 11.623 12.617">
    <defs>
        <clipPath id="4ocjc5rzva">
            <path data-name="사각형 254" style="fill:#c4c4c4" d="M0 0h11.623v12.617H0z"/>
        </clipPath>
    </defs>
    <g data-name="그룹 419">
        <g data-name="그룹 418" style="clip-path:url(#4ocjc5rzva)">
            <path data-name="패스 429" d="M10.129 1.658H8.634L6.907.364a1.831 1.831 0 0 0-2.192 0L2.989 1.658H1.494a1.494 1.494 0 0 0 0 2.989h8.634a1.494 1.494 0 0 0 0-2.989m-4.815-.5a.833.833 0 0 1 1 0l.664.5H4.649zm4.815 2.491H1.494a.5.5 0 0 1 0-1h8.634a.5.5 0 0 1 0 1" style="fill:#c4c4c4"/>
            <path data-name="패스 430" d="M10.714 8.5a.5.5 0 0 0-.573.41l-.719 4.312a1.49 1.49 0 0 1-1.474 1.249H4.682a1.49 1.49 0 0 1-1.474-1.249L2.49 8.914a.5.5 0 0 0-.983.163l.719 4.312a2.482 2.482 0 0 0 2.457 2.082h3.265a2.483 2.483 0 0 0 2.457-2.082l.719-4.312a.5.5 0 0 0-.41-.573" transform="translate(-.504 -2.854)" style="fill:#c4c4c4"/>
            <path data-name="패스 431" d="M6.051 12.814a.5.5 0 0 0 .492-.58l-.553-3.32a.5.5 0 0 0-.983.163L5.56 12.4a.5.5 0 0 0 .491.416" transform="translate(-1.679 -2.854)" style="fill:#c4c4c4"/>
            <path data-name="패스 432" d="M10.666 12.814a.5.5 0 0 0 .491-.416l.553-3.321a.5.5 0 0 0-.983-.163l-.553 3.321a.5.5 0 0 0 .492.58" transform="translate(-3.414 -2.854)" style="fill:#c4c4c4"/>
        </g>
    </g>
</svg>
