<svg xmlns="http://www.w3.org/2000/svg" width="23.429" height="48.079" viewBox="0 0 23.429 48.079">
  <defs>
    <style>
      .cls-1 {
        fill: #e63223;
      }
    </style>
  </defs>
  <g id="그룹_238" data-name="그룹 238" transform="translate(88.752 -2.25)">
    <path id="패스_82" data-name="패스 82" class="cls-1" d="M-70.05,29.218a.443.443,0,0,1-.2-.269l0-19.918A6.786,6.786,0,0,0-77.035,2.25a6.788,6.788,0,0,0-6.781,6.781l0,19.861a.57.57,0,0,1-.254.367,11.671,11.671,0,0,0-4.308,12.321,11.591,11.591,0,0,0,8.554,8.425,12.2,12.2,0,0,0,2.781.323,11.672,11.672,0,0,0,7.286-2.53,11.66,11.66,0,0,0,4.438-9.18A11.771,11.771,0,0,0-70.05,29.218ZM-72.057,44.9a8.121,8.121,0,0,1-6.931,1.5,7.968,7.968,0,0,1-5.8-5.711,8.027,8.027,0,0,1,2.944-8.482h0a4.16,4.16,0,0,0,1.726-3.319l0-19.861a3.086,3.086,0,0,1,3.082-3.082,3.086,3.086,0,0,1,3.082,3.082l0,19.918a4.045,4.045,0,0,0,1.689,3.237,7.947,7.947,0,0,1,3.238,6.433A7.978,7.978,0,0,1-72.057,44.9Z" transform="translate(0)"/>
    <path id="패스_83" data-name="패스 83" class="cls-1" d="M-82.873,16.25H-82.9A1.84,1.84,0,0,0-84.735,18.1a1.861,1.861,0,0,0,1.862,1.849A1.85,1.85,0,0,0-81.024,18.1,1.85,1.85,0,0,0-82.873,16.25Z" transform="translate(5.887 20.52)"/>
  </g>
</svg>
