<svg xmlns="http://www.w3.org/2000/svg" width="64" height="64" viewBox="0 0 64 64">
    <g data-name="그룹 354" transform="translate(-1576 -176)">
        <rect data-name="사각형 28" width="64" height="64" rx="17" transform="translate(1576 176)" style="fill:#e63223"/>
        <g data-name="그룹 298">
            <g data-name="그룹 149">
                <path data-name="패스 185" d="M898.532 502.561a8.992 8.992 0 0 1-8.983-8.983c0-4.205 6.585-20.577 7.336-22.43l1.647-4.062 1.646 4.062c.751 1.853 7.337 18.225 7.337 22.43a8.993 8.993 0 0 1-8.983 8.983zm0-25.912c-2.548 6.6-5.431 14.772-5.431 16.93a5.431 5.431 0 1 0 10.862 0c0-2.158-2.883-10.327-5.431-16.93z" transform="translate(693.613 -271.875)" style="fill:#fff"/>
            </g>
            <g data-name="그룹 150">
                <path data-name="패스 186" d="M899.728 490.09c0-1.24-2.244-6.776-2.244-6.776s-2.244 5.536-2.244 6.776a2.244 2.244 0 1 0 4.487 0z" transform="translate(694.66 -268.89)" style="fill:#fff"/>
            </g>
            <g data-name="그룹 149">
                <path data-name="패스 185" d="M898.532 513.272c-4.954 0-8.983-5.246-8.983-11.695 0-5.475 6.585-26.79 7.336-29.2l1.647-5.289 1.646 5.289c.751 2.412 7.337 23.727 7.337 29.2-.001 6.449-4.031 11.695-8.983 11.695zm0-33.736c-2.548 8.6-5.431 19.232-5.431 22.041 0 3.9 2.435 7.07 5.431 7.07s5.431-3.172 5.431-7.07c0-2.809-2.883-13.444-5.431-22.041z" transform="translate(708.578 -282.586)" style="fill:#fff"/>
            </g>
            <g data-name="그룹 150">
                <path data-name="패스 186" d="M899.728 490.09c0-1.24-2.244-6.776-2.244-6.776s-2.244 5.536-2.244 6.776a2.244 2.244 0 1 0 4.487 0z" transform="translate(709.625 -271.822)" style="fill:#fff"/>
            </g>
            <g data-name="그룹 149">
                <path data-name="패스 185" d="M898.532 502.561a8.992 8.992 0 0 1-8.983-8.983c0-4.205 6.585-20.577 7.336-22.43l1.647-4.062 1.646 4.062c.751 1.853 7.337 18.225 7.337 22.43a8.993 8.993 0 0 1-8.983 8.983zm0-25.912c-2.548 6.6-5.431 14.772-5.431 16.93a5.431 5.431 0 1 0 10.862 0c0-2.158-2.883-10.327-5.431-16.93z" transform="translate(723.486 -271.875)" style="fill:#fff"/>
            </g>
            <g data-name="그룹 150">
                <path data-name="패스 186" d="M899.728 490.09c0-1.24-2.244-6.776-2.244-6.776s-2.244 5.536-2.244 6.776a2.244 2.244 0 1 0 4.487 0z" transform="translate(724.533 -268.89)" style="fill:#fff"/>
            </g>
        </g>
    </g>
</svg>
