<svg xmlns="http://www.w3.org/2000/svg" width="16" height="15.988" viewBox="0 0 16 15.988">
    <g data-name="그룹 169">
        <path data-name="패스 217" d="m1641.061 698.647-4.647-4.131a3.078 3.078 0 0 0-4.088 0l-4.647 4.131a3.9 3.9 0 0 0-1.309 2.914v4.269a3.9 3.9 0 0 0 3.9 3.9h8.205a3.9 3.9 0 0 0 3.9-3.9v-4.269a3.9 3.9 0 0 0-1.314-2.914zm.078 7.183a2.67 2.67 0 0 1-2.667 2.667h-8.205a2.67 2.67 0 0 1-2.667-2.667v-4.269a2.668 2.668 0 0 1 .9-1.993l4.647-4.132a1.85 1.85 0 0 1 2.453 0l4.647 4.132a2.665 2.665 0 0 1 .9 1.993z" transform="translate(-1626.37 -693.74)" style="fill:#c4c4c4"/>
        <path data-name="패스 218" d="M1638.549 707.725h-6.564a.615.615 0 0 0 0 1.231h6.564a.615.615 0 1 0 0-1.231z" transform="translate(-1627.267 -696.25)" style="fill:#c4c4c4"/>
    </g>
</svg>
