<svg xmlns="http://www.w3.org/2000/svg" width="32" height="23.319" viewBox="0 0 32 23.319">
    <g data-name="그룹 300">
        <path data-name="패스 207" d="M2811.538 707.093a34.137 34.137 0 0 0-2.65-1.091l-1.273-7.637a2.866 2.866 0 0 0-3.592-2.291 29.245 29.245 0 0 1-15.567 0 2.827 2.827 0 0 0-2.285.345 2.886 2.886 0 0 0-1.292 1.956l-1.272 7.625c-.9.332-1.784.686-2.65 1.091a1.231 1.231 0 0 0 1.043 2.23 34.22 34.22 0 0 1 28.495 0 1.231 1.231 0 0 0 1.044-2.23zm-25.291-1.956 1.06-6.364a.415.415 0 0 1 .189-.286.384.384 0 0 1 .3-.046 31.734 31.734 0 0 0 16.883 0 .407.407 0 0 1 .509.323l1.062 6.367a37.131 37.131 0 0 0-20.002.006z" transform="translate(-2780.248 -695.965)" style="fill:#c4c4c4"/>
        <path data-name="패스 208" d="M2802.35 703.675a5.339 5.339 0 0 0-4.92 3.282h-4.93a5.376 5.376 0 1 0 .37 2.462h4.185a5.321 5.321 0 1 0 5.293-5.744zm-14.769 8.205a2.872 2.872 0 1 1 2.872-2.872 2.875 2.875 0 0 1-2.872 2.872zm14.769 0a2.872 2.872 0 1 1 2.871-2.872 2.875 2.875 0 0 1-2.871 2.872z" transform="translate(-2778.966 -691.023)" style="fill:#c4c4c4"/>
    </g>
</svg>
