<svg xmlns="http://www.w3.org/2000/svg" width="64" height="64" viewBox="0 0 64 64">
    <g data-name="그룹 355" transform="translate(-1576 -280)">
        <rect data-name="사각형 28" width="64" height="64" rx="17" transform="translate(1576 280)" style="fill:#ffc31f"/>
        <path data-name="패스 206" d="m2017.09 914.625-9.9-4.085-10-1.483.1-.748 8.011-6.773 9.688-.269a2.737 2.737 0 1 0-.245-5.468l-11.351.6-7.036 5.361-5.937-5.208 6.956-4.676 1.353-6.159a2.265 2.265 0 1 0-4.36-1.232l-1.087 4.735a90.076 90.076 0 0 1-9.246 4.369 37.329 37.329 0 0 0-1.19-3.849l-1.12-2.094a3.917 3.917 0 0 0-6.906 3.7l1.123 2.094c.52.975 2.741 3.157 2.543 3.122-2.794 3.019-2.153 5.338-2.531 9.674l-.071.8-.31 7.447 4.212 6.209a2.264 2.264 0 0 0 3.749-2.54l-2.872-4.953 1.516-8.3s7.16 6.681 9 7.961a12.778 12.778 0 0 0 5.281 1.625l8.743 1.158 9.8 4.044a2.736 2.736 0 0 0 2.085-5.06z" transform="translate(-387.785 -590.263)" style="fill:none;stroke:#fff;stroke-linejoin:round;stroke-width:3px"/>
    </g>
</svg>
