<svg xmlns="http://www.w3.org/2000/svg" width="16" height="16" viewBox="0 0 16 16">
    <g data-name="그룹 170">
        <path data-name="패스 219" d="M1051.572 707.923a8 8 0 1 0 8 8 8.009 8.009 0 0 0-8-8zm-3.536 13.761a4.293 4.293 0 0 1 7.077 0 6.705 6.705 0 0 1-7.077 0zm8.06-.74a5.518 5.518 0 0 0-9.044 0 6.77 6.77 0 1 1 9.044 0z" style="fill:#c4c4c4" transform="translate(-1043.572 -707.923)"/>
        <path data-name="패스 220" d="M1052.649 711.923a3.077 3.077 0 1 0 3.077 3.077 3.08 3.08 0 0 0-3.077-3.077zm0 4.923A1.846 1.846 0 1 1 1054.5 715a1.848 1.848 0 0 1-1.851 1.846z" transform="translate(-1044.649 -708.641)" style="fill:#c4c4c4"/>
    </g>
</svg>
