<svg xmlns="http://www.w3.org/2000/svg" width="56" height="52.267" viewBox="0 0 56 52.267">
    <g data-name="그룹 239">
        <path data-name="패스 264" d="M2177.3 1289.137a7.71 7.71 0 0 0-10.891 0l-18.989 18.986a4.872 4.872 0 0 0-1.434 3.467v6.762a2.1 2.1 0 0 0 2.1 2.1h6.761a4.858 4.858 0 0 0 3.465-1.437l18.986-18.986a7.707 7.707 0 0 0 .002-10.892zm-21.956 26.908a.7.7 0 0 1-.5.207h-4.66v-4.661a.7.7 0 0 1 .2-.5l13.541-13.541 4.952 4.95zm18.987-18.987-2.476 2.476-4.95-4.952 2.473-2.476a3.5 3.5 0 0 1 4.953 4.952z" transform="translate(-2123.553 -1286.885)" style="fill:#c4c4c4"/>
        <path data-name="패스 265" d="M2179.294 1306.12a2.1 2.1 0 0 0-2.1 2.1v5.532a3.5 3.5 0 0 1-3.5 3.5h-20.544a7.7 7.7 0 0 0-2.611.474l-.14.059a7.629 7.629 0 0 0-1.868 1.011l-6.35 4.759v-23.81a3.5 3.5 0 0 1 3.5-3.5h15.91a2.1 2.1 0 1 0 0-4.2h-15.91a7.711 7.711 0 0 0-7.7 7.7v28.012a2.1 2.1 0 0 0 2.1 2.1 2.073 2.073 0 0 0 1.258-.42s9.356-6.885 10.4-7.661a3.124 3.124 0 0 1 1.65-.322h20.309a7.711 7.711 0 0 0 7.7-7.7v-5.532a2.1 2.1 0 0 0-2.104-2.102z" transform="translate(-2137.977 -1277.593)" style="fill:#c4c4c4"/>
    </g>
</svg>
