<svg xmlns="http://www.w3.org/2000/svg" width="48" height="43.077" viewBox="0 0 48 43.077">
    <path data-name="패스 260" d="M2354.812 435.394h-3.077v-3.077a6.778 6.778 0 0 0-6.769-6.769h-24.616a6.776 6.776 0 0 0-6.769 6.769v24.615a1.843 1.843 0 0 0 1.846 1.846 1.822 1.822 0 0 0 1.105-.369l6.9-5.169v1.231a6.775 6.775 0 0 0 6.769 6.769h18.051a3.1 3.1 0 0 1 1.846.615l8.535 6.4a1.846 1.846 0 0 0 2.954-1.477v-24.615a6.778 6.778 0 0 0-6.775-6.769zm-37.538 17.846v-20.923a3.08 3.08 0 0 1 3.077-3.077h24.615a3.081 3.081 0 0 1 3.077 3.077v12.308a3.08 3.08 0 0 1-3.077 3.077h-18.053a6.767 6.767 0 0 0-2.294.416l-.123.052a6.756 6.756 0 0 0-1.642.889zm40.615 9.846-5.581-4.182a6.8 6.8 0 0 0-4.061-1.356H2330.2a3.078 3.078 0 0 1-3.077-3.077v-3.077h17.846a6.776 6.776 0 0 0 6.769-6.769v-5.538h3.077a3.082 3.082 0 0 1 3.077 3.077z" transform="translate(-2313.581 -425.548)" style="fill:#2446dd"/>
</svg>
