<svg xmlns="http://www.w3.org/2000/svg" width="264" height="60.368" viewBox="0 0 264 60.368">
    <defs>
        <clipPath id="o7e0lylvga">
            <path data-name="패스 316" d="M38.843 48.2s2.141 22.492 15.68 23.5c4.566.339 9.027-2.711 3.641-10.9-2.575-3.915-2.81-7.382-4.7-13.338z" transform="translate(-38.843 -47.456)" style="fill:none"/>
        </clipPath>
        <clipPath id="urfck8padc">
            <path data-name="패스 317" d="M44.245 61.73c2.331 5.032 6.085 9.658 12.059 10.1 4.566.339 9.027-2.711 3.641-10.9-2.535-3.854-2.8-7.274-4.615-13.061-6.406 1.56-9.547 7.966-11.086 13.861" transform="translate(-44.245 -47.869)" style="fill:none"/>
        </clipPath>
        <clipPath id="40xe4e433e">
            <path data-name="패스 318" d="M55.591 10.525c-3.734 2.781-15.209 10.2-20.928 11.189 0 0 13.411 15.034 23.235 10.092 0 0 9.29-5.314 9.746-12.481.522-8.178-3.256-10.331-6.812-10.331a9.659 9.659 0 0 0-5.241 1.531" transform="translate(-34.663 -8.994)" style="fill:none"/>
        </clipPath>
        <clipPath id="y1yezj82fg">
            <path data-name="패스 319" d="M36.729 0A6.175 6.175 0 1 0 42.9 6.176 6.176 6.176 0 0 0 36.729 0z" transform="translate(-30.553)" style="fill:none"/>
        </clipPath>
        <clipPath id="3d970biroi">
            <path data-name="패스 320" d="M19.827 55.248c.632 1.219 9.481-9.389 9.481-10.157s-12.956-3.025-12.956-3.025S19.2 54.03 19.827 55.248" transform="translate(-16.351 -42.067)" style="fill:none"/>
        </clipPath>
        <clipPath id="pg8ogjghsk">
            <path data-name="패스 321" d="M21.846 49.7C19.2 50.2 5.271 61.2 3.5 63.53c-4.72 6.2 8.6 10.225 13.021 8.655C24.167 69.468 29 50.575 29 50.575c-.472-.847-2.441-1.1-4.263-1.1a17.622 17.622 0 0 0-2.895.219" transform="translate(-2.5 -49.478)" style="fill:none"/>
        </clipPath>
        <clipPath id="94kvrttn2m">
            <path data-name="패스 322" d="M3.054 12.568C1.593 13.931.009 17.476 0 21.258v.066a10.528 10.528 0 0 0 4.371 8.849c8.006 5.785 28.506 12.576 42.1 2.156 0 0-16.831-2.779-32.1-18.924a10.381 10.381 0 0 0-6.542-2.822 6.833 6.833 0 0 0-4.777 1.984" transform="translate(0 -10.584)" style="fill:none"/>
        </clipPath>
        <clipPath id="vzea3acaao">
            <path data-name="사각형 232" style="fill:none" d="M0 0h264v60.368H0z"/>
        </clipPath>
        <linearGradient id="fzk0hqw6tb" x1="-.732" y1="1.023" x2="-.711" y2="1.023" gradientUnits="objectBoundingBox">
            <stop offset="0" stop-color="#3570b8"/>
            <stop offset=".147" stop-color="#3570b8"/>
            <stop offset=".414" stop-color="#448bcb"/>
            <stop offset=".649" stop-color="#4fa0d9"/>
            <stop offset="1" stop-color="#4fa0d9"/>
        </linearGradient>
        <linearGradient id="n4wgadhf3d" x1="-.84" y1="1.074" x2="-.818" y2="1.074" gradientUnits="objectBoundingBox">
            <stop offset="0" stop-color="#449443"/>
            <stop offset=".147" stop-color="#449443"/>
            <stop offset=".176" stop-color="#489642"/>
            <stop offset=".531" stop-color="#81b342"/>
            <stop offset=".703" stop-color="#97bf42"/>
            <stop offset="1" stop-color="#97bf42"/>
        </linearGradient>
        <linearGradient id="71fzkoh3rf" x1="-.432" y1="1.492" x2="-.416" y2="1.492" gradientUnits="objectBoundingBox">
            <stop offset="0" stop-color="#1c4395"/>
            <stop offset=".153" stop-color="#2655a2"/>
            <stop offset=".639" stop-color="#438bc9"/>
            <stop offset=".875" stop-color="#4fa0d9"/>
            <stop offset="1" stop-color="#4fa0d9"/>
        </linearGradient>
        <linearGradient id="6vbqb7lebh" x1="-1.658" y1="4.888" x2="-1.604" y2="4.888" gradientUnits="objectBoundingBox">
            <stop offset="0" stop-color="#1c4395"/>
            <stop offset=".253" stop-color="#2d63ac"/>
            <stop offset=".566" stop-color="#3f84c4"/>
            <stop offset=".826" stop-color="#4a98d3"/>
            <stop offset="1" stop-color="#4fa0d9"/>
        </linearGradient>
        <linearGradient id="g4tua45brj" x1="-.846" y1="2.232" x2="-.794" y2="2.232" gradientUnits="objectBoundingBox">
            <stop offset="0" stop-color="#3570b8"/>
            <stop offset=".465" stop-color="#448bcb"/>
            <stop offset=".875" stop-color="#4fa0d9"/>
            <stop offset="1" stop-color="#4fa0d9"/>
        </linearGradient>
        <linearGradient id="k9abaavtol" x1=".068" y1="1.12" x2=".09" y2="1.12" gradientUnits="objectBoundingBox">
            <stop offset="0" stop-color="#f6d350"/>
            <stop offset=".066" stop-color="#f6d350"/>
            <stop offset=".536" stop-color="#ebb040"/>
            <stop offset=".875" stop-color="#e59c37"/>
            <stop offset="1" stop-color="#e59c37"/>
        </linearGradient>
        <linearGradient id="xbks3pl9an" x1=".063" y1="1.157" x2=".076" y2="1.157" gradientUnits="objectBoundingBox">
            <stop offset="0" stop-color="#3570b8"/>
            <stop offset=".147" stop-color="#3570b8"/>
            <stop offset=".534" stop-color="#448bcb"/>
            <stop offset=".875" stop-color="#4fa0d9"/>
            <stop offset="1" stop-color="#4fa0d9"/>
        </linearGradient>
    </defs>
    <g data-name="그룹 409">
        <g data-name="그룹 394">
            <g data-name="그룹 393" style="clip-path:url(#o7e0lylvga)" transform="translate(26.038 31.811)">
                <path data-name="사각형 225" transform="rotate(-18.216 3.842 23.962)" style="fill:url(#fzk0hqw6tb)" d="M0 0h31.152v31.07H0z"/>
            </g>
        </g>
        <g data-name="그룹 396">
            <g data-name="그룹 395" style="clip-path:url(#urfck8padc)" transform="translate(29.659 32.088)">
                <path data-name="사각형 226" transform="rotate(-70.269 11.437 16.253)" style="fill:url(#n4wgadhf3d)" d="M0 0h29.993v28.052H0z"/>
            </g>
        </g>
        <g data-name="그룹 398">
            <g data-name="그룹 397" style="clip-path:url(#40xe4e433e)" transform="translate(23.236 6.029)">
                <path data-name="사각형 227" transform="rotate(-30.136 6.966 25.879)" style="fill:url(#71fzkoh3rf)" d="M0 0h42.908v40.823H0z"/>
            </g>
        </g>
        <g data-name="그룹 400">
            <g data-name="그룹 399" style="clip-path:url(#y1yezj82fg)" transform="translate(20.481)">
                <path data-name="사각형 228" style="fill:url(#6vbqb7lebh)" d="M0 0h12.352v12.351H0z"/>
            </g>
        </g>
        <g data-name="그룹 402">
            <g data-name="그룹 401" style="clip-path:url(#3d970biroi)" transform="translate(10.961 28.199)">
                <path data-name="사각형 229" style="fill:url(#g4tua45brj)" d="M0 0h12.956v14.401H0z"/>
            </g>
        </g>
        <g data-name="그룹 404">
            <g data-name="그룹 403" style="clip-path:url(#pg8ogjghsk)" transform="translate(1.676 33.167)">
                <path data-name="사각형 230" transform="translate(-3.722)" style="fill:url(#k9abaavtol)" d="M0 0h30.225v24.278H0z"/>
            </g>
        </g>
        <g data-name="그룹 406">
            <g data-name="그룹 405" style="clip-path:url(#94kvrttn2m)" transform="translate(0 7.095)">
                <path data-name="사각형 231" transform="rotate(-54.438 13.083 25.436)" style="fill:url(#xbks3pl9an)" d="M0 0h53.194v56.511H0z"/>
            </g>
        </g>
        <g data-name="그룹 408">
            <g data-name="그룹 407" style="clip-path:url(#vzea3acaao)">
                <path data-name="패스 323" d="M187.791 18.822h2.778q.758 0 1.669-.023t1.844-.068q.934-.045 1.821-.121t1.617-.167v1.093q-.729.107-1.6.182t-1.791.129q-.919.053-1.829.083t-1.715.031h-2.793zm8.059-5.465a3.819 3.819 0 0 1-.249 1.389 3.166 3.166 0 0 1-1.836 1.851 4.255 4.255 0 0 1-2.962 0 3.165 3.165 0 0 1-1.837-1.851 3.991 3.991 0 0 1 0-2.777 3.168 3.168 0 0 1 1.837-1.852 4.265 4.265 0 0 1 2.962 0 3.169 3.169 0 0 1 1.836 1.852 3.815 3.815 0 0 1 .249 1.388m-1.336 0a2.425 2.425 0 0 0-.6-1.73 2.407 2.407 0 0 0-3.263 0 2.422 2.422 0 0 0-.6 1.73 2.42 2.42 0 0 0 .6 1.73 2.4 2.4 0 0 0 3.263 0 2.423 2.423 0 0 0 .6-1.73m4.979 9.517h-1.26V9.017h1.26z" transform="translate(-61.908 -2.972)" style="fill:#fff"/>
                <path data-name="패스 324" d="M209.818 17.676V13.5h7.362v-1.987h-7.38v-1.138h8.682v4.2h-7.362v1.988h7.817v1.108h-1.973v2.5h3.628v1.108h-12.9V20.18h4.022v-2.5zm5.874 0h-2.7v2.5h2.7z" transform="translate(-68.469 -3.42)" style="fill:#fff"/>
                <path data-name="패스 325" d="M229.135 15.87V9.419h1.336v2.034h3.855V9.419h1.305v2.565h2.9v-2.99h1.305v7.422h-1.306v-3.263h-2.9v2.717zm5.191-3.324h-3.855v2.2h3.855zm5.509 10.109h-8.682v-5.374h1.29v1.4h6.1v-1.475h1.29zm-1.29-2.9h-6.1v1.76h6.1z" transform="translate(-75.538 -2.965)" style="fill:#fff"/>
                <path data-name="패스 326" d="M248.811 13.145a3.625 3.625 0 0 1 .272-1.411 3.342 3.342 0 0 1 .758-1.123 3.508 3.508 0 0 1 1.136-.736 3.736 3.736 0 0 1 1.424-.265 3.852 3.852 0 0 1 1.439.265 3.481 3.481 0 0 1 1.152.736 3.349 3.349 0 0 1 .757 1.123 3.626 3.626 0 0 1 .273 1.411 3.478 3.478 0 0 1-.273 1.382 3.3 3.3 0 0 1-.757 1.1 3.54 3.54 0 0 1-1.152.729 3.852 3.852 0 0 1-1.439.265 3.736 3.736 0 0 1-1.424-.265 3.568 3.568 0 0 1-1.136-.729 3.292 3.292 0 0 1-.758-1.1 3.478 3.478 0 0 1-.272-1.382m1.4-.008a2.658 2.658 0 0 0 .16.931 2.048 2.048 0 0 0 .455.734 2.151 2.151 0 0 0 .706.477 2.475 2.475 0 0 0 1.821 0 2.088 2.088 0 0 0 1.168-1.211 2.559 2.559 0 0 0 .168-.931 2.705 2.705 0 0 0-.168-.968 2.3 2.3 0 0 0-.463-.756 2.045 2.045 0 0 0-.706-.491 2.466 2.466 0 0 0-1.821 0 2.044 2.044 0 0 0-.706.491 2.192 2.192 0 0 0-.455.756 2.812 2.812 0 0 0-.16.968m9.956 9.464h-8.97V18.3h1.335v3.157h7.634zm-.318-3.567h-1.29V9.016h1.29z" transform="translate(-82.024 -2.972)" style="fill:#fff"/>
                <path data-name="패스 327" d="M273.355 18.326V17.2h12.9v1.123h-5.645v4.629h-1.335v-4.626zm10.973-2.793h-8.863V9.492h1.305v1.988h6.253V9.492h1.305zm-1.275-2.975h-6.313v1.882h6.314z" transform="translate(-90.116 -3.129)" style="fill:#fff"/>
                <path data-name="패스 328" d="M304 17.3h-3.126a3.847 3.847 0 0 1-1.26 1.814 3.032 3.032 0 0 1-1.867.615 3.091 3.091 0 0 1-1.389-.319 3.189 3.189 0 0 1-1.123-.942 4.7 4.7 0 0 1-.751-1.558 7.681 7.681 0 0 1-.274-2.151 7.6 7.6 0 0 1 .274-2.144 4.708 4.708 0 0 1 .751-1.55 3.2 3.2 0 0 1 1.123-.942 3.091 3.091 0 0 1 1.389-.319 3.06 3.06 0 0 1 1.776.543 3.592 3.592 0 0 1 1.245 1.628H304V9.017h1.3v13.857H304zm-4.052-2.542a7.659 7.659 0 0 0-.144-1.545 4.17 4.17 0 0 0-.425-1.2 2.205 2.205 0 0 0-.69-.773 1.763 1.763 0 0 0-1.882 0 2.193 2.193 0 0 0-.69.773 4.131 4.131 0 0 0-.425 1.2 8.356 8.356 0 0 0 0 3.09 4.131 4.131 0 0 0 .425 1.2 2.267 2.267 0 0 0 .69.78 1.724 1.724 0 0 0 1.882 0 2.28 2.28 0 0 0 .69-.78 4.17 4.17 0 0 0 .425-1.2 7.659 7.659 0 0 0 .144-1.545m1.229 1.419h2.838V13.1h-2.884a7.522 7.522 0 0 1 .114.8c.025.279.038.569.038.873a8.5 8.5 0 0 1-.106 1.412" transform="translate(-96.99 -2.972)" style="fill:#fff"/>
                <path data-name="패스 329" d="M314.043 18.822h2.777q.759 0 1.67-.023t1.844-.068q.933-.045 1.821-.121t1.616-.167v1.093q-.728.107-1.6.182t-1.791.129q-.919.053-1.829.083t-1.715.031h-2.793zm8.059-5.465a3.833 3.833 0 0 1-.249 1.389 3.165 3.165 0 0 1-1.837 1.851 4.255 4.255 0 0 1-2.962 0 3.166 3.166 0 0 1-1.836-1.851 3.991 3.991 0 0 1 0-2.777 3.169 3.169 0 0 1 1.836-1.852 4.265 4.265 0 0 1 2.962 0 3.168 3.168 0 0 1 1.837 1.852 3.83 3.83 0 0 1 .249 1.388m-1.336 0a2.425 2.425 0 0 0-.6-1.73 2.407 2.407 0 0 0-3.263 0 2.422 2.422 0 0 0-.6 1.73 2.42 2.42 0 0 0 .6 1.73 2.4 2.4 0 0 0 3.263 0 2.423 2.423 0 0 0 .6-1.73m4.979 9.517h-1.26V9.017h1.26z" transform="translate(-103.529 -2.972)" style="fill:#fff"/>
                <path data-name="패스 330" d="M336.07 17.676V13.5h7.361v-1.987h-7.376v-1.138h8.682v4.2h-7.361v1.988h7.817v1.108h-1.973v2.5h3.628v1.108h-12.9V20.18h4.022v-2.5zm5.873 0h-2.7v2.5h2.7z" transform="translate(-110.09 -3.42)" style="fill:#fff"/>
                <path data-name="패스 331" d="M358.264 11.294q-.607.044-1.3.052t-1.374.008h-.91v-1.108h3.3q.8 0 1.708-.03a14.612 14.612 0 0 1-.38 2.375 16.657 16.657 0 0 1-.743 2.3 10.144 10.144 0 0 0 1.191 1.958 9.986 9.986 0 0 0 1.556 1.609l-1.032.88a11.2 11.2 0 0 1-2.337-3.142 14.054 14.054 0 0 1-1.359 2.057 11.968 11.968 0 0 1-1.692 1.738l-1.048-.774a11.844 11.844 0 0 0 3.059-3.574 11.63 11.63 0 0 0 1.358-4.348m7.543 11.58H364.5v-7.544h-1.746v7.195h-1.275V9.168h1.275v5.04h1.746V9.017h1.305z" transform="translate(-116.651 -2.972)" style="fill:#fff"/>
                <path data-name="패스 332" d="M375.357 9.752h6.435v1.123h-5.1v4.568h1.821a21.725 21.725 0 0 0 2.808-.167q1.275-.167 2.079-.318v1.062q-.44.106-1.032.2t-1.26.167q-.668.068-1.381.114t-1.4.046h-2.975zm10.5 12.856h-8.743v-4.052h1.336v2.914h7.407zm1.882-8.682h-2.186v5.267h-1.305V9.039h1.305v3.719h2.186z" transform="translate(-123.742 -2.98)" style="fill:#fff"/>
                <path data-name="패스 333" d="M112.135 60.51v-2.272h26.094v2.272h-11.42v9.363h-2.7V60.51zm22.2-5.649H116.4V42.643h2.64v4.021h12.65v-4.021h2.64zm-2.579-6.017H118.98v3.807h12.771z" transform="translate(-36.967 -14.058)" style="fill:#fff"/>
                <path data-name="패스 334" d="M174.115 58.443h-6.325a7.783 7.783 0 0 1-2.548 3.669 6.132 6.132 0 0 1-3.776 1.243 6.25 6.25 0 0 1-2.809-.646 6.476 6.476 0 0 1-2.272-1.906 9.516 9.516 0 0 1-1.519-3.151 15.534 15.534 0 0 1-.553-4.351 15.366 15.366 0 0 1 .553-4.335 9.532 9.532 0 0 1 1.519-3.136 6.476 6.476 0 0 1 2.272-1.906 6.259 6.259 0 0 1 2.809-.646 6.2 6.2 0 0 1 3.592 1.1 7.281 7.281 0 0 1 2.518 3.293h6.539v-5.99h2.64V69.71h-2.64zm-8.2-5.142a15.412 15.412 0 0 0-.292-3.125 8.408 8.408 0 0 0-.859-2.421 4.435 4.435 0 0 0-1.4-1.562 3.561 3.561 0 0 0-3.807 0 4.435 4.435 0 0 0-1.4 1.562 8.368 8.368 0 0 0-.859 2.421 16.892 16.892 0 0 0 0 6.25 8.354 8.354 0 0 0 .859 2.421 4.589 4.589 0 0 0 1.4 1.578 3.482 3.482 0 0 0 3.807 0 4.589 4.589 0 0 0 1.4-1.578 8.394 8.394 0 0 0 .859-2.421 15.4 15.4 0 0 0 .292-3.125m2.486 2.87h5.741v-6.232h-5.833a15.347 15.347 0 0 1 .23 1.612q.076.845.077 1.765a17.127 17.127 0 0 1-.215 2.855" transform="translate(-50.872 -13.741)" style="fill:#fff"/>
                <path data-name="패스 335" d="M196.081 44.075h12.956v2.242h-10.255v13.845h3.071a37.265 37.265 0 0 0 5.679-.4q2.579-.4 4.206-.737v2.255q-.891.249-2.087.467t-2.548.389q-1.351.171-2.794.28t-2.824.109h-5.4zM221.255 54.7h-4.82v15.01h-2.64V41.681h2.64v10.714h4.82z" transform="translate(-64.641 -13.741)" style="fill:#fff"/>
                <path data-name="패스 336" d="m235.08 63.554-1.9-1.689a22.519 22.519 0 0 0 3.469-3.1 17 17 0 0 0 2.7-4.006 20.02 20.02 0 0 0 1.643-5.08 24.543 24.543 0 0 0 .291-6.294h2.794a29.246 29.246 0 0 1-.123 3.838q-.184 1.812-.522 3.469a20.413 20.413 0 0 0 7.951 10.284l-1.719 1.965a21 21 0 0 1-4.129-3.852 23.167 23.167 0 0 1-3.116-5.019 20.562 20.562 0 0 1-3.024 5.357 21.719 21.719 0 0 1-4.314 4.129m25.788-8.5h-4.82v14.638h-2.64V41.635h2.64v11.052h4.82z" transform="translate(-76.87 -13.725)" style="fill:#fff"/>
                <path data-name="패스 337" d="M280.042 54.974h3.224a49.731 49.731 0 0 0 6.232-.338 44.144 44.144 0 0 0 4.574-.8v2.21a38.569 38.569 0 0 1-5.081.859 56.712 56.712 0 0 1-6.094.307h-5.556v-8.44h9.639V44.9h-9.7v-2.21h12.341v8.227h-9.578zm18.389 9.7a4.086 4.086 0 0 1-.567 2.1 4.912 4.912 0 0 1-1.716 1.673 9.658 9.658 0 0 1-2.85 1.1 19.686 19.686 0 0 1-7.892 0 9.649 9.649 0 0 1-2.835-1.1 4.907 4.907 0 0 1-1.716-1.673 4.079 4.079 0 0 1-.567-2.1 4.281 4.281 0 0 1 2.283-3.714q2.283-1.443 6.788-1.443t6.788 1.443a4.281 4.281 0 0 1 2.283 3.714m-2.763.062a2.542 2.542 0 0 0-1.52-2.149 9.876 9.876 0 0 0-4.8-.89 10.134 10.134 0 0 0-4.8.875 2.525 2.525 0 0 0-1.55 2.165 2.558 2.558 0 0 0 1.55 2.18 9.986 9.986 0 0 0 4.8.89 9.876 9.876 0 0 0 4.8-.89 2.558 2.558 0 0 0 1.52-2.18m6.877-14.122h-4.421v8.842h-2.64V41.681h2.64v6.57h4.421z" transform="translate(-91.41 -13.741)" style="fill:#fff"/>
                <path data-name="패스 338" d="M318.818 56.785V42.51h2.609v4.79h7.706v-4.79h2.578v4.145h6.171v-4.974h2.64v17.5h-2.64v-5.22h-6.171v2.824zm10.315-7.307h-7.705v5.066h7.705zm11.635 15.258a3.949 3.949 0 0 1-.583 2.072 4.9 4.9 0 0 1-1.747 1.658 10.134 10.134 0 0 1-2.911 1.09 18.459 18.459 0 0 1-4.077.4 17.871 17.871 0 0 1-4.015-.4 9.847 9.847 0 0 1-2.881-1.105 5.008 5.008 0 0 1-1.747-1.673 3.977 3.977 0 0 1 0-4.145 4.885 4.885 0 0 1 1.747-1.657 10.162 10.162 0 0 1 2.881-1.091 17.911 17.911 0 0 1 4.015-.4 18.5 18.5 0 0 1 4.077.4 9.88 9.88 0 0 1 2.911 1.105 5.025 5.025 0 0 1 1.747 1.673 3.952 3.952 0 0 1 .583 2.073m-2.763.061a2.041 2.041 0 0 0-.383-1.151 3.107 3.107 0 0 0-1.2-.983 8.358 8.358 0 0 0-2.057-.675 14.457 14.457 0 0 0-2.932-.261 14.036 14.036 0 0 0-2.885.261 8.337 8.337 0 0 0-2.042.675 3.092 3.092 0 0 0-1.2.983 2.036 2.036 0 0 0-.383 1.151 1.792 1.792 0 0 0 .383 1.075 3.193 3.193 0 0 0 1.2.921 8.463 8.463 0 0 0 2.042.645 14.88 14.88 0 0 0 2.885.245 15.326 15.326 0 0 0 2.932-.245 8.487 8.487 0 0 0 2.057-.645 3.209 3.209 0 0 0 1.2-.921 1.8 1.8 0 0 0 .383-1.075m-6.294-12.986h6.2v-3.039h-6.2z" transform="translate(-105.103 -13.741)" style="fill:#fff"/>
                <path data-name="패스 339" d="M358.2 54.851h5.065q1.534 0 3.388-.046t3.745-.138q1.892-.092 3.688-.245t3.27-.338v2.149q-1.751.246-3.822.414t-4.252.292v6.232h-2.7v-6.14q-.86.062-1.673.061H358.2zm16.731-7.306a4.9 4.9 0 0 1-.5 2.21 5.208 5.208 0 0 1-1.421 1.75 6.784 6.784 0 0 1-2.232 1.152 10.819 10.819 0 0 1-5.93 0 6.784 6.784 0 0 1-2.232-1.152 5.208 5.208 0 0 1-1.421-1.75 5.1 5.1 0 0 1 0-4.421 5.21 5.21 0 0 1 1.421-1.75 6.783 6.783 0 0 1 2.232-1.151 10.819 10.819 0 0 1 5.93 0 6.783 6.783 0 0 1 2.232 1.151 5.211 5.211 0 0 1 1.421 1.75 4.9 4.9 0 0 1 .5 2.211m7.152 21.612h-19.49v-7.214h2.61v4.942h16.884zm-9.854-21.643a3.2 3.2 0 0 0-.229-1.151 2.945 2.945 0 0 0-.752-1.089 3.935 3.935 0 0 0-1.366-.8 7.163 7.163 0 0 0-4.145 0 3.93 3.93 0 0 0-1.366.8 2.936 2.936 0 0 0-.751 1.089 2.989 2.989 0 0 0 0 2.3 2.81 2.81 0 0 0 .751 1.075 4.242 4.242 0 0 0 1.366.8 6.807 6.807 0 0 0 4.145 0 4.248 4.248 0 0 0 1.366-.8 2.819 2.819 0 0 0 .752-1.073 3.2 3.2 0 0 0 .231-1.151m6.754 16.731v-3.407h-6.416V58.6h6.416V41.681h2.64v22.564z" transform="translate(-118.087 -13.741)" style="fill:#fff"/>
            </g>
        </g>
    </g>
</svg>
